# xmcd
#
# Track frame offsets:
#	150
#	16121
#	28894
#	39816
#	52587
#	65215
#	78954
#	92066
#	101135
#	115864
#	129744
#	141657
#	156619
#	169675
#
# Disc length: 2426 seconds
#
# Revision: 0
# Processed by: cddbd v1.5.2PL0 Copyright (c) Steve Scherf et al.
# Submitted via: EasyCDDAExtractor 15.3.0.1
#
DISCID=bc09780e
DTITLE=49 Special - Trails of Evil
DYEAR=2007
DGENRE=Blues
TTITLE0=Hanging 'round
TTITLE1=Still She Wonders Why
TTITLE2=(There Ain't Nothing Like a) Honky Tonk Song
TTITLE3=Breaking Hearts and Telling Lies
TTITLE4=Who's Crying Now
TTITLE5=Long Gone
TTITLE6=Pass the Bottle
TTITLE7=Who Is He?
TTITLE8=Think of Me
TTITLE9=The Lights of the Honky Tonk
TTITLE10=I Don't Believe
TTITLE11=Helpless and Sincere
TTITLE12=Little Mexican Star
TTITLE13=Trails of Evil
EXTD=
EXTT0=
EXTT1=
EXTT2=
EXTT3=
EXTT4=
EXTT5=
EXTT6=
EXTT7=
EXTT8=
EXTT9=
EXTT10=
EXTT11=
EXTT12=
EXTT13=
PLAYORDER=
